<?xml version="1.0" encoding="UTF-8"?>
<svg width="37px" height="37px" viewBox="0 0 37 37" version="1.1" xmlns="http://www.w3.org/2000/svg" xmlns:xlink="http://www.w3.org/1999/xlink">
    <!-- Generator: Sketch 56.2 (81672) - https://sketch.com -->
    <title>Shape</title>
    <desc>Created with Sketch.</desc>
    <g id="Page-1" stroke="none" stroke-width="1" fill="none" fill-rule="evenodd">
        <g id="/lockwise-1440" transform="translate(-339.000000, -824.000000)" fill="#FFB547" fill-rule="nonzero">
            <g id="Group-3" transform="translate(0.000000, 743.000000)">
                <g id="Sync" transform="translate(339.000000, 80.000000)">
                    <path d="M33.8,1 C32.3640597,1 31.2,2.16405965 31.2,3.6 L31.2,6.5796 C26.6373864,1.80832205 19.8354327,-0.0941102894 13.4595454,1.61778812 C7.08365801,3.32968653 2.14935992,8.38325213 0.5902,14.7982 C0.340746821,15.7078602 0.603524836,16.6812759 1.27686301,17.3418244 C1.95020118,18.0023728 2.92847666,18.2464374 3.83318639,17.9795875 C4.73789612,17.7127376 5.42712326,16.9768325 5.6342,16.0566 C7.05903978,10.2731598 12.2436329,6.20637049 18.2,6.2 C22.2695749,6.19362742 26.0992622,8.12439997 28.5142,11.4 L23.4,11.4 C21.9640597,11.4 20.8,12.5640597 20.8,14 C20.8,15.4359403 21.9640597,16.6 23.4,16.6 L33.8,16.6 C35.2359403,16.6 36.4,15.4359403 36.4,14 L36.4,3.6 C36.4,2.16405965 35.2359403,1 33.8,1 Z M33.9196,20.4506 C33.2503664,20.2831373 32.5420143,20.3885085 31.9505007,20.7435142 C31.3589872,21.0985198 30.9328099,21.6740533 30.7658,22.3434 C29.3409602,28.1268402 24.1563671,32.1936295 18.2,32.2 C14.1304251,32.2063726 10.3007378,30.2756 7.8858,27 L13,27 C14.4359403,27 15.6,25.8359403 15.6,24.4 C15.6,22.9640597 14.4359403,21.8 13,21.8 L2.6,21.8 C1.16405965,21.8 0,22.9640597 0,24.4 L0,34.8 C0,36.2359403 1.16405965,37.4 2.6,37.4 C4.03594035,37.4 5.2,36.2359403 5.2,34.8 L5.2,31.8204 C9.76261357,36.5916779 16.5645673,38.4941103 22.9404546,36.7822119 C29.316342,35.0703135 34.2506401,30.0167479 35.8098,23.6018 C36.1570451,22.2098003 35.3111599,20.7996037 33.9196,20.4506 Z" id="Shape"></path>
                </g>
            </g>
        </g>
    </g>
</svg>