<?xml version="1.0" encoding="UTF-8"?>
<svg width="231px" height="41px" viewBox="0 0 231 41" version="1.1" xmlns="http://www.w3.org/2000/svg" xmlns:xlink="http://www.w3.org/1999/xlink">
    <!-- Generator: Sketch 56.2 (81672) - https://sketch.com -->
    <title>lockwise-horizontal</title>
    <desc>Created with Sketch.</desc>
    <defs>
        <linearGradient x1="71.7701588%" y1="11.8449561%" x2="27.0664838%" y2="90.3240173%" id="linearGradient-1">
            <stop stop-color="#FF980E" offset="0%"></stop>
            <stop stop-color="#FF851B" offset="11%"></stop>
            <stop stop-color="#FF3750" offset="57%"></stop>
            <stop stop-color="#F92261" offset="80%"></stop>
            <stop stop-color="#F5156C" offset="100%"></stop>
        </linearGradient>
        <linearGradient x1="71.3756421%" y1="-0.991163637%" x2="34.8458602%" y2="86.2869514%" id="linearGradient-2">
            <stop stop-color="#FFF261" stop-opacity="0.8" offset="0%"></stop>
            <stop stop-color="#FFF261" stop-opacity="0.68" offset="6%"></stop>
            <stop stop-color="#FFF261" stop-opacity="0.48" offset="19%"></stop>
            <stop stop-color="#FFF261" stop-opacity="0.31" offset="31%"></stop>
            <stop stop-color="#FFF261" stop-opacity="0.17" offset="42%"></stop>
            <stop stop-color="#FFF261" stop-opacity="0.08" offset="53%"></stop>
            <stop stop-color="#FFF261" stop-opacity="0.02" offset="63%"></stop>
            <stop stop-color="#FFF261" stop-opacity="0" offset="72%"></stop>
        </linearGradient>
        <linearGradient x1="50.5100362%" y1="200.063359%" x2="50.5100362%" y2="-34.412081%" id="linearGradient-3">
            <stop stop-color="#0090ED" offset="0%"></stop>
            <stop stop-color="#9059FF" offset="50%"></stop>
            <stop stop-color="#B833E1" offset="81%"></stop>
        </linearGradient>
        <linearGradient x1="24.5626979%" y1="80.9797972%" x2="79.944234%" y2="3.63495033%" id="linearGradient-4">
            <stop stop-color="#0090ED" offset="2%"></stop>
            <stop stop-color="#9059FF" offset="49%"></stop>
            <stop stop-color="#B833E1" offset="100%"></stop>
        </linearGradient>
        <linearGradient x1="68.7009193%" y1="81.4149947%" x2="32.6876475%" y2="18.5850053%" id="linearGradient-5">
            <stop stop-color="#592ACB" stop-opacity="0" offset="14%"></stop>
            <stop stop-color="#542BC8" stop-opacity="0.03" offset="33%"></stop>
            <stop stop-color="#462FBF" stop-opacity="0.11" offset="53%"></stop>
            <stop stop-color="#2F35B1" stop-opacity="0.25" offset="74%"></stop>
            <stop stop-color="#0F3D9C" stop-opacity="0.44" offset="95%"></stop>
            <stop stop-color="#054096" stop-opacity="0.5" offset="100%"></stop>
        </linearGradient>
        <linearGradient x1="62.0775376%" y1="16.9595356%" x2="36.2932369%" y2="93.6718537%" id="linearGradient-6">
            <stop stop-color="#722291" stop-opacity="0.5" offset="0%"></stop>
            <stop stop-color="#B833E1" stop-opacity="0" offset="50%"></stop>
        </linearGradient>
        <linearGradient x1="86.9665168%" y1="7.98909558%" x2="37.0253487%" y2="61.0397371%" id="linearGradient-7">
            <stop stop-color="#054096" stop-opacity="0.5" offset="0%"></stop>
            <stop stop-color="#0F3D9C" stop-opacity="0.44" offset="3%"></stop>
            <stop stop-color="#2F35B1" stop-opacity="0.25" offset="17%"></stop>
            <stop stop-color="#462FBF" stop-opacity="0.11" offset="30%"></stop>
            <stop stop-color="#542BC8" stop-opacity="0.03" offset="43%"></stop>
            <stop stop-color="#592ACB" stop-opacity="0" offset="56%"></stop>
        </linearGradient>
    </defs>
    <g id="Page-1" stroke="none" stroke-width="1" fill="none" fill-rule="evenodd">
        <g id="/lockwise-1440" transform="translate(-143.000000, -107.000000)">
            <g id="lockwise-horizontal" transform="translate(143.000000, 107.000000)">
                <path d="M38.477961,15.575 C34.3399303,10.8748664 29.924124,6.43013562 25.254577,2.265 C22.4150835,-0.0929892176 18.3131377,-0.0929892176 15.4736443,2.265 C10.8039489,6.43174891 6.38813954,10.8781524 2.2502603,15.58 C-0.0923840817,18.4380928 -0.0923840817,22.5669072 2.2502603,25.425 C6.38989371,30.1252829 10.8073619,34.5700167 15.4786117,38.735 C16.8420025,39.8994252 18.5787365,40.5265419 20.3665944,40.5 C22.1627215,40.5244911 23.9066385,39.8920001 25.2744469,38.72 C27.7085033,36.51 29.9289588,34.375 32.0699349,32.185 C32.8285769,31.2831054 32.7544128,29.9416041 31.9010412,29.13 L25.3340564,22.965 C27.0286521,21.4486062 27.9553724,19.2451642 27.8575271,16.965 C27.6731771,13.0474262 24.5928831,9.89528106 20.7043818,9.645 C18.6184699,9.5225564 16.5754057,10.2756214 15.0613449,11.725 C13.5197221,13.1924366 12.658702,15.2423862 12.6870153,17.3778943 C12.7153286,19.5134025 13.6303904,21.5394947 15.2103688,22.965 L12.8359219,25.13 C12.0743222,25.848173 12.0231979,27.0475472 12.7208859,27.8287411 C13.4185738,28.6099351 14.6088398,28.6860459 15.3991323,28 L18.0269197,25.6 L18.0964642,25.535 C18.8081144,24.8176454 19.1883172,23.8327999 19.1445987,22.82 C19.1076906,21.8001004 18.6505225,20.8417302 17.8828633,20.175 C16.6736371,19.1491543 16.2301134,17.4720754 16.7726183,15.9768744 C17.3151232,14.4816734 18.728034,13.487019 20.3094685,13.487019 C21.8909031,13.487019 23.3038139,14.4816734 23.8463188,15.9768744 C24.3888237,17.4720754 23.9453,19.1491543 22.7360738,20.175 C21.9523328,20.8398969 21.4804584,21.8043302 21.4345987,22.835 C21.3957033,23.8425586 21.7754922,24.820897 22.4827332,25.535 L22.5274403,25.58 L28.0413232,30.78 C26.3523861,32.465 24.5939046,34.135 22.7211714,35.845 C21.3284428,36.8950013 19.4146808,36.8950013 18.0219523,35.845 C13.462917,31.7749982 9.1500669,27.4338979 5.10655098,22.845 C4.0666747,21.4420471 4.0666747,19.5179529 5.10655098,18.115 C9.14760366,13.5237675 13.4605976,9.18252246 18.0219523,5.115 C19.4136664,4.06749332 21.3244898,4.06749332 22.7162039,5.115 C27.2775585,9.18252246 31.5905525,13.5237675 35.6316052,18.115 C36.6722951,19.5158301 36.6722951,21.4391699 35.6316052,22.84 C34.9709328,23.59 34.3102603,24.34 33.6446204,25.025 C32.928579,25.8078636 32.9786192,27.0267684 33.7563883,27.7475 C34.5341574,28.4682316 35.74513,28.4178636 36.4611714,27.635 C37.1168764,26.92 37.7924512,26.17 38.4481562,25.4 C40.7885639,22.5526635 40.80105,18.4366694 38.477961,15.575 L38.477961,15.575 Z" id="Path" fill="url(#linearGradient-1)" fill-rule="nonzero"></path>
                <path d="M38.477961,15.575 C34.3399303,10.8748664 29.924124,6.43013562 25.254577,2.265 C22.4150835,-0.0929892176 18.3131377,-0.0929892176 15.4736443,2.265 C10.8039489,6.43174891 6.38813954,10.8781524 2.2502603,15.58 C-0.0923840817,18.4380928 -0.0923840817,22.5669072 2.2502603,25.425 C6.38989371,30.1252829 10.8073619,34.5700167 15.4786117,38.735 C16.8420025,39.8994252 18.5787365,40.5265419 20.3665944,40.5 C22.1627215,40.5244911 23.9066385,39.8920001 25.2744469,38.72 C27.7085033,36.51 29.9289588,34.375 32.0699349,32.185 C32.8285769,31.2831054 32.7544128,29.9416041 31.9010412,29.13 L25.3340564,22.965 C27.0286521,21.4486062 27.9553724,19.2451642 27.8575271,16.965 C27.6731771,13.0474262 24.5928831,9.89528106 20.7043818,9.645 C18.6184699,9.5225564 16.5754057,10.2756214 15.0613449,11.725 C13.5197221,13.1924366 12.658702,15.2423862 12.6870153,17.3778943 C12.7153286,19.5134025 13.6303904,21.5394947 15.2103688,22.965 L12.8359219,25.13 C12.0743222,25.848173 12.0231979,27.0475472 12.7208859,27.8287411 C13.4185738,28.6099351 14.6088398,28.6860459 15.3991323,28 L18.0269197,25.6 L18.0964642,25.535 C18.8081144,24.8176454 19.1883172,23.8327999 19.1445987,22.82 C19.1076906,21.8001004 18.6505225,20.8417302 17.8828633,20.175 C16.6736371,19.1491543 16.2301134,17.4720754 16.7726183,15.9768744 C17.3151232,14.4816734 18.728034,13.487019 20.3094685,13.487019 C21.8909031,13.487019 23.3038139,14.4816734 23.8463188,15.9768744 C24.3888237,17.4720754 23.9453,19.1491543 22.7360738,20.175 C21.9523328,20.8398969 21.4804584,21.8043302 21.4345987,22.835 C21.3957033,23.8425586 21.7754922,24.820897 22.4827332,25.535 L22.5274403,25.58 L28.0413232,30.78 C26.3523861,32.465 24.5939046,34.135 22.7211714,35.845 C21.3284428,36.8950013 19.4146808,36.8950013 18.0219523,35.845 C13.462917,31.7749982 9.1500669,27.4338979 5.10655098,22.845 C4.0666747,21.4420471 4.0666747,19.5179529 5.10655098,18.115 C9.14760366,13.5237675 13.4605976,9.18252246 18.0219523,5.115 C19.4136664,4.06749332 21.3244898,4.06749332 22.7162039,5.115 C27.2775585,9.18252246 31.5905525,13.5237675 35.6316052,18.115 C36.6722951,19.5158301 36.6722951,21.4391699 35.6316052,22.84 C34.9709328,23.59 34.3102603,24.34 33.6446204,25.025 C32.928579,25.8078636 32.9786192,27.0267684 33.7563883,27.7475 C34.5341574,28.4682316 35.74513,28.4178636 36.4611714,27.635 C37.1168764,26.92 37.7924512,26.17 38.4481562,25.4 C40.7885639,22.5526635 40.80105,18.4366694 38.477961,15.575 L38.477961,15.575 Z" id="Path" fill="url(#linearGradient-2)" fill-rule="nonzero"></path>
                <path d="M35.6117354,18.135 C36.6524253,19.5358301 36.6524253,21.4591699 35.6117354,22.86 C34.9510629,23.61 34.2903905,24.36 33.6247505,25.045 C33.161553,25.551424 33.0019565,26.2681106 33.2060797,26.925091 C33.4102029,27.5820715 33.9470345,28.0795347 34.6143552,28.2300911 C35.281676,28.3806475 35.978104,28.161424 36.4413015,27.655 C37.0970065,26.94 37.7725813,26.19 38.4282863,25.42 C40.822603,22.755 35.6117354,18.135 35.6117354,18.135 L35.6117354,18.135 Z" id="Path" fill="url(#linearGradient-3)" fill-rule="nonzero"></path>
                <path d="M28.0413232,30.78 C26.3523861,32.465 24.5939046,34.135 22.7211714,35.845 C21.3284428,36.8950013 19.4146808,36.8950013 18.0219523,35.845 C13.462917,31.7749982 9.1500669,27.4338979 5.10655098,22.845 C4.0666747,21.4420471 4.0666747,19.5179529 5.10655098,18.115 L4.23724512,19.115 C2.06786546,21.5947234 2.11291896,25.324106 4.34156182,27.75 C7.86712088,31.5987303 11.5842405,35.2651014 15.4786117,38.735 C16.8420025,39.8994252 18.5787365,40.5265419 20.3665944,40.5 C22.1627215,40.5244911 23.9066385,39.8920001 25.2744469,38.72 C26.6603688,37.46 28.200282,36.005 29.5812364,34.665 C29.9097284,34.3472893 30.0953927,33.908547 30.0953927,33.45 C30.0953927,32.991453 29.9097284,32.5527107 29.5812364,32.235 L28.0413232,30.78 Z" id="Path" fill="url(#linearGradient-4)" fill-rule="nonzero"></path>
                <path d="M4.36143167,27.765 C5.81193059,29.35 7.25746204,30.865 8.73776573,32.345 L9.32889371,31.375 C9.82563991,30.58 10.3223861,29.8 10.8539046,29.02 C8.94143167,27.065 7.04882863,25.045 5.12145336,22.87 C4.08157708,21.4670471 4.08157708,19.5429529 5.12145336,18.14 L4.25214751,19.14 C2.09352884,21.6120058 2.13207719,25.3239529 4.34156182,27.75 L4.36143167,27.765 Z" id="Path" fill="url(#linearGradient-5)" fill-rule="nonzero" opacity="0.9"></path>
                <path d="M35.6117354,18.135 C36.6524253,19.5358301 36.6524253,21.4591699 35.6117354,22.86 C34.9510629,23.61 34.2903905,24.36 33.6247505,25.045 C33.161553,25.551424 33.0019565,26.2681106 33.2060797,26.925091 C33.4102029,27.5820715 33.9470345,28.0795347 34.6143552,28.2300911 C35.281676,28.3806475 35.978104,28.161424 36.4413015,27.655 C37.0970065,26.94 37.7725813,26.19 38.4282863,25.42 C40.822603,22.755 35.6117354,18.135 35.6117354,18.135 L35.6117354,18.135 Z" id="Path" fill="url(#linearGradient-6)" fill-rule="nonzero"></path>
                <path d="M29.5613666,32.235 L28.0413232,30.78 C26.3523861,32.465 24.5939046,34.135 22.7162039,35.845 C21.8598921,36.5088837 20.7647496,36.7776526 19.7009544,36.585 L19.7009544,40.47 C19.9195228,40.47 20.1380911,40.5 20.3616269,40.5 C22.157754,40.5244911 23.9016711,39.8920001 25.2694794,38.72 C26.6554013,37.46 28.1953145,36.005 29.576269,34.665 C29.9041258,34.3459618 30.0880168,33.9057907 30.0852337,33.4467916 C30.082387,32.9877924 29.8931114,32.5499399 29.5613666,32.235 L29.5613666,32.235 Z" id="Path" fill="url(#linearGradient-7)" fill-rule="nonzero" opacity="0.9"></path>
                <text id="Firefox-Lockwise" font-family="Helvetica" font-size="22" font-weight="normal" fill="#20123A">
                    <tspan x="47" y="27">Firefox Lockwise</tspan>
                </text>
            </g>
        </g>
    </g>
</svg>