<?xml version="1.0" encoding="UTF-8"?>
<svg width="49px" height="31px" viewBox="0 0 49 31" version="1.1" xmlns="http://www.w3.org/2000/svg" xmlns:xlink="http://www.w3.org/1999/xlink">
    <!-- Generator: Sketch 57.1 (83088) - https://sketch.com -->
    <title>Mask</title>
    <desc>Created with Sketch.</desc>
    <g id="/lockwise" stroke="none" stroke-width="1" fill="none" fill-rule="evenodd">
        <g id="/lockwise-1440" transform="translate(-1048.000000, -824.000000)" fill-rule="nonzero">
            <g id="Group-3" transform="translate(0.000000, 743.000000)">
                <g id="Mask" transform="translate(1053.000000, 86.000000)">
                    <path d="M11.115,7.89 C7.215,8.085 5.46,10.425 5.46,11.01 C5.46,11.595 7.995,13.155 10.725,13.155 C13.26,13.155 16.38,12.18 16.38,11.4 C16.38,10.425 14.82,7.695 11.115,7.89 L11.115,7.89 Z" id="Path" fill="#9564F5"></path>
                    <path d="M27.885,7.89 C24.18,7.695 22.62,10.425 22.62,11.4 C22.62,12.18 25.545,13.155 28.275,13.155 C31.005,13.155 33.54,11.595 33.54,11.01 C33.345,10.425 31.785,8.085 27.885,7.89 L27.885,7.89 Z" id="Path" fill="#9564F5"></path>
                    <path d="M30.225,22.65 C27.8006882,22.65 26.2398218,21.8509216 23.3224369,19.7368746 C23.1284997,19.5962893 23.0388067,19.5313362 22.9392362,19.4595306 C21.1991754,18.204679 20.3315102,17.775 19.5,17.775 C18.5792832,17.775 17.6377596,18.2537408 15.5038215,19.7565141 C15.0571092,20.0711003 14.9537724,20.1436108 14.7452196,20.2877717 C12.4151226,21.8984378 10.8049576,22.65 8.775,22.65 C1.91703698,22.65 -2.5,16.4385417 -2.5,7.28 C-2.5,0.62497883 0.387475302,-1.85 7.995,-1.85 C11.0951129,-1.85 13.3863369,-1.3340139 15.930667,-0.301532109 C16.2739236,-0.1622396 17.309897,0.276872673 17.3407379,0.28970238 C17.795309,0.478802283 18.1165964,0.600449361 18.4067175,0.690767457 C18.8263439,0.821402029 19.1663677,0.88 19.5,0.88 C19.8336323,0.88 20.1736561,0.821402029 20.5932825,0.690767457 C20.8834036,0.600449361 21.204691,0.478802283 21.6592621,0.28970238 C21.690103,0.276872673 22.7260764,-0.1622396 23.069333,-0.301532109 C25.6136631,-1.3340139 27.9048871,-1.85 31.005,-1.85 C38.6125247,-1.85 41.5,0.62497883 41.5,7.28 C41.5,16.4385417 37.082963,22.65 30.225,22.65 Z" id="Path" stroke="#9564F5" stroke-width="5"></path>
                </g>
            </g>
        </g>
    </g>
</svg>